<?xml version="1.0" encoding="UTF-8" standalone="no"?>
<svg width="90px" height="90px" viewBox="0 0 90 90" version="1.1" xmlns="http://www.w3.org/2000/svg" xmlns:xlink="http://www.w3.org/1999/xlink">
    <!-- Generator: sketchtool 3.7 (28169) - http://www.bohemiancoding.com/sketch -->
    <title>68EC9626-C6B0-4D16-9E13-6EC147F53580</title>
    <desc>Created with sketchtool.</desc>
    <defs></defs>
    <g id="Page-1" stroke="none" stroke-width="1" fill="none" fill-rule="evenodd">
        <g id="homepage" transform="translate(-559.000000, -2531.000000)">
            <g id="icon-securite" transform="translate(559.000000, 2531.000000)">
                <ellipse id="Oval-6" fill="#EFEFEF" cx="45" cy="45" rx="45" ry="45"></ellipse>
                <g id="security-camera-3.2" transform="translate(25.000000, 31.000000)">
                    <g id="Layer_1">
                        <g id="Group">
                            <path d="M13.5483871,22.483871 C11.0967742,22.483871 9.03225806,20.4193548 9.03225806,17.9677419 C9.03225806,16.1612903 10.0645161,14.6129032 11.7419355,13.8387097 C11.8709677,13.7096774 12.1290323,13.7096774 12.2580645,13.8387097 L17.5483871,16.4193548 C17.6774194,16.5483871 17.8064516,16.6774194 17.9354839,16.8064516 C18.0645161,17.1935484 18.0645161,17.5806452 18.0645161,17.9677419 C18.0645161,20.5483871 16,22.483871 13.5483871,22.483871 L13.5483871,22.483871 Z M12,15.2580645 C10.9677419,15.7741935 10.3225806,16.8064516 10.3225806,17.9677419 C10.3225806,19.7741935 11.7419355,21.1935484 13.5483871,21.1935484 C15.3548387,21.1935484 16.7741935,19.7741935 16.7741935,17.9677419 L16.7741935,17.4516129 L12,15.2580645 L12,15.2580645 Z" id="Shape" fill="#02A6D9"></path>
                            <path d="M25.0322581,21.3225806 C24.6451613,21.3225806 24.3870968,21.1935484 24,21.0645161 L5.03225806,11.9032258 C3.87096774,11.3870968 3.48387097,9.96774194 4,8.93548387 L7.48387097,1.32258065 C7.74193548,0.677419355 8.25806452,0.290322581 8.77419355,0.161290323 C9.29032258,-0.0967741935 9.93548387,0.0322580645 10.5806452,0.290322581 L10.5806452,0.290322581 L29.5483871,9.32258065 C30.7096774,9.83870968 31.0967742,11.2580645 30.5806452,12.2903226 L27.0967742,20.0322581 C26.8387097,20.5483871 26.3225806,21.0645161 25.8064516,21.1935484 C25.5483871,21.1935484 25.2903226,21.3225806 25.0322581,21.3225806 L25.0322581,21.3225806 Z M9.5483871,1.19354839 L9.16129032,1.19354839 C9.03225806,1.4516129 8.77419355,1.58064516 8.64516129,1.83870968 L5.16129032,9.4516129 C4.90322581,9.96774194 5.16129032,10.483871 5.67741935,10.7419355 L24.6451613,19.9032258 C24.9032258,20.0322581 25.1612903,20.0322581 25.4193548,19.9032258 C25.6774194,19.7741935 25.8064516,19.6451613 25.9354839,19.3870968 L29.4193548,11.7741935 C29.6774194,11.2580645 29.4193548,10.7419355 28.9032258,10.483871 L9.93548387,1.32258065 C9.80645161,1.32258065 9.67741935,1.19354839 9.5483871,1.19354839 L9.5483871,1.19354839 Z" id="Shape" fill="#0272BE"></path>
                            <path d="M13.5483871,28.9354839 L0.64516129,28.9354839 C0.258064516,28.9354839 0,28.6774194 0,28.2903226 C0,27.9032258 0.258064516,27.6451613 0.64516129,27.6451613 L12.9032258,27.6451613 L12.9032258,21.8387097 C12.9032258,21.4516129 13.1612903,21.1935484 13.5483871,21.1935484 C13.9354839,21.1935484 14.1935484,21.4516129 14.1935484,21.8387097 L14.1935484,28.2903226 C14.1935484,28.6774194 13.9354839,28.9354839 13.5483871,28.9354839 L13.5483871,28.9354839 Z" id="Shape" fill="#0272BE"></path>
                            <path d="M34.1935484,24.4193548 C34.0645161,24.4193548 33.9354839,24.4193548 33.9354839,24.2903226 L32.6451613,23.6451613 C32.516129,23.6451613 32.3870968,23.516129 32.3870968,23.3870968 L31.2258065,20.9354839 L27.483871,19.1290323 C27.2258065,19 27.0967742,18.6129032 27.2258065,18.2258065 C27.3548387,17.9677419 27.7419355,17.8387097 28.1290323,17.9677419 L32,19.9032258 C32.1290323,19.9032258 32.2580645,20.0322581 32.2580645,20.1612903 L33.4193548,22.6129032 L33.9354839,22.8709677 L37.2903226,15 L36.7741935,14.7419355 L34.4516129,15.3870968 L34.0645161,15.3870968 L30.1935484,13.4516129 C29.9354839,13.3225806 29.8064516,12.9354839 29.9354839,12.5483871 C30.0645161,12.2903226 30.4516129,12.1612903 30.8387097,12.2903226 L34.4516129,14.0967742 L36.7741935,13.4516129 L37.1612903,13.4516129 L38.4516129,14.0967742 C38.7096774,14.2258065 38.8387097,14.6129032 38.7096774,14.8709677 L34.8387097,23.9032258 C34.7096774,24.0322581 34.5806452,24.1612903 34.4516129,24.2903226 C34.3225806,24.4193548 34.3225806,24.4193548 34.1935484,24.4193548 L34.1935484,24.4193548 Z" id="Shape" fill="#0272BE"></path>
                            <circle id="Oval" fill="#02A6D9" cx="13.5483871" cy="17.9677419" r="0.64516129"></circle>
                        </g>
                    </g>
                </g>
            </g>
        </g>
    </g>
</svg>