<?xml version="1.0" encoding="UTF-8" standalone="no"?>
<svg width="24px" height="24px" viewBox="0 0 24 24" version="1.1" xmlns="http://www.w3.org/2000/svg" xmlns:xlink="http://www.w3.org/1999/xlink">
    <!-- Generator: sketchtool 3.7 (28169) - http://www.bohemiancoding.com/sketch -->
    <title>9D78515B-96E4-4DD5-809B-B23EB1B3E8F9</title>
    <desc>Created with sketchtool.</desc>
    <defs>
        <linearGradient x1="50%" y1="0%" x2="50%" y2="100%" id="linearGradient-1">
            <stop stop-color="#02A6D9" offset="0%"></stop>
            <stop stop-color="#0272BE" offset="100%"></stop>
        </linearGradient>
    </defs>
    <g id="Page-1" stroke="none" stroke-width="1" fill="none" fill-rule="evenodd">
        <g id="homepage" transform="translate(-655.000000, -3600.000000)" fill="url(#linearGradient-1)">
            <g id="icon-email" transform="translate(655.000000, 3600.000000)">
                <g id="Layer_1">
                    <g id="Group">
                        <g id="Group-2">
                            <path d="M15.374463,14.7624022 C16.1077839,16.2955351 17.8095869,17 19.5,17 C21.624,17 24,14.862 24,12 C24,5.383 18.617,0 12,0 C5.383,0 0,5.383 0,12 C0,18.617 5.383,24 12,24 C14.741,24 17.322,23.1 19.463,21.397 C19.679,21.225 19.715,20.911 19.543,20.695 C19.37,20.478 19.058,20.444 18.84,20.615 C16.878,22.175 14.513,23 12,23 C5.935,23 1,18.065 1,12 C1,5.935 5.935,1 12,1 C18.065,1 23,5.935 23,12 C23,14.253 21.118,16 19.5,16 C17.9604232,16 16.1733525,15.2848153 16.004875,13.375339 C16.0308222,13.2866368 16.0542157,13.197793 16.075,13.109 C16.1007153,12.9991996 16.0881102,12.8893992 16.0458894,12.7936082 L16.992,7.59 C17.041,7.319 16.861,7.058 16.59,7.009 C16.321,6.956 16.058,7.138 16.008,7.411 L15.9481294,7.74296082 C14.8859487,7.03171416 13.3557461,6.80934726 11.866,7.185 C9.835,7.696 8.284,9.212 7.611,11.344 C7.193,12.668 7.443,14.14 8.28,15.282 C9.077,16.37 10.283,16.995 11.588,16.995 C13.2488968,16.995 14.5783323,16.0176142 15.374463,14.7624022 Z M15.0047357,13.2168312 C15.0015928,13.145626 15,13.0733507 15,13 L15.7466121,8.86030256 C15.7440551,8.85790038 15.7415176,8.8554662 15.739,8.853 C14.953,8.088 13.495,7.805 12.109,8.155 C11.118,8.404 9.339,9.189 8.564,11.645 C8.242,12.666 8.437,13.805 9.085,14.691 C9.692,15.52 10.605,15.995 11.587,15.995 C13.4538682,15.995 14.5984545,14.4402153 15.0047357,13.2168312 Z" id="Combined-Shape"></path>
                        </g>
                    </g>
                </g>
            </g>
        </g>
    </g>
</svg>