<?xml version="1.0" encoding="UTF-8" standalone="no"?>
<svg width="90px" height="90px" viewBox="0 0 90 90" version="1.1" xmlns="http://www.w3.org/2000/svg" xmlns:xlink="http://www.w3.org/1999/xlink">
    <!-- Generator: sketchtool 3.7 (28169) - http://www.bohemiancoding.com/sketch -->
    <title>5E6F098F-B2A2-428F-BA55-006D1A6BC143</title>
    <desc>Created with sketchtool.</desc>
    <defs></defs>
    <g id="Page-1" stroke="none" stroke-width="1" fill="none" fill-rule="evenodd">
        <g id="homepage" transform="translate(-908.000000, -2531.000000)">
            <g id="icon-services" transform="translate(908.000000, 2531.000000)">
                <ellipse id="Oval-6" fill="#EFEFEF" cx="45" cy="45" rx="45" ry="45"></ellipse>
                <g id="handshake.2" transform="translate(25.000000, 33.000000)">
                    <g id="Layer_1">
                        <g id="Group">
                            <path d="M20,24.7333333 C19.2,24.7333333 18.4,24.4666667 17.6,23.9333333 C17.0666667,23.6666667 12.9333333,20.7333333 9.6,17.9333333 C9.06666667,17.5333333 8.26666667,16.7333333 7.6,15.9333333 C7.06666667,15.4 6.53333333,14.8666667 6.26666667,14.6 C6,14.3333333 6,13.9333333 6.13333333,13.6666667 C6.4,13.4 6.8,13.4 7.06666667,13.5333333 C7.33333333,13.8 7.86666667,14.3333333 8.53333333,15 C9.2,15.6666667 10,16.4666667 10.4,16.8666667 C13.7333333,19.6666667 17.8666667,22.4666667 18.4,22.8666667 C18.9333333,23.2666667 19.4666667,23.4 20,23.4 C20.4,23.4 21.3333333,23.4 21.3333333,23.1333333 C21.4666667,22.8666667 21.6,22.7333333 21.8666667,22.7333333 C22.1333333,22.7333333 22.2666667,22.7333333 22.5333333,22.8666667 C22.6666667,23 22.9333333,23.2666667 23.4666667,23 C24.1333333,22.7333333 24.6666667,21.9333333 24.8,21.2666667 C24.8,21 24.9333333,20.7333333 25.2,20.7333333 C25.4666667,20.6 25.7333333,20.7333333 25.8666667,20.8666667 C26.1333333,21.1333333 26.6666667,21 27.2,20.8666667 C27.7333333,20.6 28.2666667,20.0666667 28.1333333,19.5333333 C28.1333333,19.2666667 28.2666667,19 28.4,18.8666667 C28.6666667,18.7333333 28.9333333,18.7333333 29.0666667,18.8666667 C29.4666667,19.1333333 30.2666667,19.1333333 30.6666667,18.7333333 C30.9333333,18.4666667 31.0666667,18.2 30.8,17.6666667 C30.1333333,16.3333333 26.8,13.5333333 24.2666667,11.2666667 C22.9333333,10.0666667 21.6,9 20.6666667,8.06666667 C20.2666667,8.2 20,8.46666667 19.8666667,8.6 C19.4666667,8.86666667 19.2,9.13333333 18.5333333,9.26666667 C17.3333333,10.8666667 15.8666667,11.2666667 14,10.6 C13.0666667,10.3333333 12.8,9.66666667 12.6666667,9.26666667 C12.2666667,7.66666667 13.8666667,5.4 15.0666667,4.2 C17.8666667,1.4 19.8666667,0.333333333 23.8666667,2.06666667 C27.2,3.53333333 29.8666667,4.73333333 29.8666667,4.73333333 C30.2666667,4.86666667 30.4,5.26666667 30.2666667,5.66666667 C30.1333333,6.06666667 29.7333333,6.2 29.3333333,6.06666667 C29.3333333,6.06666667 26.6666667,4.86666667 23.3333333,3.4 C20.4,2.06666667 18.9333333,2.46666667 16.1333333,5.26666667 C15.0666667,6.33333333 13.8666667,8.2 14.1333333,9.13333333 C14.1333333,9.26666667 14.2666667,9.4 14.5333333,9.53333333 C16.4,10.0666667 17.2,9.4 17.7333333,8.46666667 C17.8666667,8.33333333 18,8.2 18.2666667,8.2 C18.6666667,8.2 18.8,8.06666667 19.2,7.8 C19.6,7.53333333 20,7.26666667 20.8,6.86666667 C21.0666667,6.73333333 21.3333333,6.86666667 21.4666667,7 C22.4,7.93333333 23.8666667,9.13333333 25.3333333,10.3333333 C28.4,12.8666667 31.4666667,15.5333333 32.2666667,17.1333333 C32.8,18.0666667 32.5333333,19.1333333 31.8666667,19.8 C31.2,20.3333333 30.4,20.4666667 29.6,20.3333333 C29.3333333,21 28.8,21.6666667 28,22.0666667 C27.3333333,22.3333333 26.6666667,22.4666667 26.1333333,22.3333333 C25.7333333,23.1333333 25.0666667,23.9333333 24.2666667,24.3333333 C23.7333333,24.6 23.0666667,24.6 22.5333333,24.3333333 C21.6,24.6 20.6666667,24.7333333 20,24.7333333 L20,24.7333333 Z" id="Shape" fill="#0272BE"></path>
                            <path d="M16.6666667,4.06666667 L8.66666667,4.06666667 C8.26666667,4.06666667 8,3.66666667 8,3.4 C8,3.13333333 8.26666667,2.73333333 8.66666667,2.73333333 L16.6666667,2.73333333 C17.0666667,2.73333333 17.3333333,3 17.3333333,3.4 C17.3333333,3.8 17.0666667,4.06666667 16.6666667,4.06666667 L16.6666667,4.06666667 Z" id="Shape" fill="#02A6D9"></path>
                            <path d="M31.3333333,18.0666667 C31.0666667,18.0666667 30.9333333,17.9333333 30.8,17.8 C30.5333333,17.5333333 30.6666667,17.1333333 30.9333333,16.8666667 L32.9333333,15.5333333 C33.2,15.2666667 33.6,15.4 33.8666667,15.6666667 C34.1333333,15.9333333 34,16.3333333 33.7333333,16.6 L31.7333333,17.9333333 C31.6,17.9333333 31.4666667,18.0666667 31.3333333,18.0666667 L31.3333333,18.0666667 Z" id="Shape" fill="#02A6D9"></path>
                            <path d="M28.6666667,20.0666667 C28.5333333,20.0666667 28.4,20.0666667 28.2666667,19.9333333 C27.3333333,19.2666667 23.3333333,15 22.8,14.6 C22.5333333,14.3333333 22.5333333,13.9333333 22.8,13.6666667 C23.0666667,13.4 23.4666667,13.4 23.7333333,13.6666667 C24.9333333,15 28.2666667,18.4666667 28.9333333,19 C29.2,19.2666667 29.3333333,19.6666667 29.0666667,19.9333333 C29.0666667,19.9333333 28.8,20.0666667 28.6666667,20.0666667 L28.6666667,20.0666667 Z" id="Shape" fill="#02A6D9"></path>
                            <path d="M25.3333333,22.0666667 C25.2,22.0666667 25.0666667,22.0666667 24.9333333,21.9333333 C23.7333333,21 20.6666667,17.6666667 20.1333333,17.1333333 C19.8666667,16.8666667 19.8666667,16.4666667 20.1333333,16.2 C20.4,15.9333333 20.8,15.9333333 21.0666667,16.2 C21.6,16.8666667 24.6666667,19.9333333 25.6,20.7333333 C25.8666667,21 26,21.4 25.7333333,21.6666667 C25.7333333,21.9333333 25.4666667,22.0666667 25.3333333,22.0666667 L25.3333333,22.0666667 Z" id="Shape" fill="#02A6D9"></path>
                            <path d="M22,24.0666667 C21.8666667,24.0666667 21.7333333,24.0666667 21.6,23.9333333 C20.5333333,23 18.5333333,21 17.6,19.9333333 C17.3333333,19.6666667 17.3333333,19.2666667 17.6,19 C17.8666667,18.7333333 18.2666667,18.7333333 18.5333333,19 C19.6,20.0666667 21.4666667,22.0666667 22.5333333,23 C22.8,23.2666667 22.8,23.6666667 22.6666667,23.9333333 C22.4,23.9333333 22.1333333,24.0666667 22,24.0666667 L22,24.0666667 Z" id="Shape" fill="#02A6D9"></path>
                            <path d="M0.666666667,16.0666667 C0.266666667,16.0666667 0,15.8 0,15.4 L0,0.733333333 C0,0.333333333 0.266666667,0.0666666667 0.666666667,0.0666666667 C1.86666667,0.0666666667 7.73333333,0.2 9.2,1.53333333 C9.33333333,1.66666667 9.33333333,1.8 9.33333333,2.06666667 C8.93333333,6.33333333 6.8,15.1333333 6.66666667,15.5333333 C6.53333333,15.8 6.26666667,16.0666667 6,16.0666667 C6,16.0666667 2.8,16.0666667 0.666666667,16.0666667 L0.666666667,16.0666667 Z M1.33333333,1.4 L1.33333333,14.7333333 L5.46666667,14.7333333 C5.86666667,12.8666667 7.6,6.06666667 8,2.33333333 C6.93333333,1.66666667 3.73333333,1.4 1.33333333,1.4 L1.33333333,1.4 Z" id="Shape" fill="#02A6D9"></path>
                            <path d="M39.3333333,17.4 L34,17.4 C33.7333333,17.4 33.4666667,17.1333333 33.3333333,16.8666667 C32.6666667,14.6 29.2,5.4 28.1333333,3.66666667 C28,3.53333333 28,3.26666667 28,3.13333333 C28,3 28.2666667,2.73333333 28.4,2.73333333 C28.5333333,2.73333333 32.8,1.4 39.3333333,1.4 C39.7333333,1.4 40,1.66666667 40,2.06666667 L40,16.7333333 C40,17 39.7333333,17.4 39.3333333,17.4 L39.3333333,17.4 Z M34.5333333,16.0666667 L38.6666667,16.0666667 L38.6666667,2.73333333 C34.2666667,2.73333333 31.0666667,3.4 29.6,3.8 C31.0666667,6.46666667 33.7333333,13.5333333 34.5333333,16.0666667 L34.5333333,16.0666667 Z" id="Shape" fill="#0272BE"></path>
                        </g>
                    </g>
                </g>
            </g>
        </g>
    </g>
</svg>