<?xml version="1.0" encoding="UTF-8" standalone="no"?>
<svg width="24px" height="24px" viewBox="0 0 24 24" version="1.1" xmlns="http://www.w3.org/2000/svg" xmlns:xlink="http://www.w3.org/1999/xlink">
    <!-- Generator: sketchtool 3.7 (28169) - http://www.bohemiancoding.com/sketch -->
    <title>11CCC962-138A-4276-922F-3030FA0AE2CF</title>
    <desc>Created with sketchtool.</desc>
    <defs>
        <linearGradient x1="50%" y1="0%" x2="50%" y2="100%" id="linearGradient-1">
            <stop stop-color="#02A6D9" offset="0%"></stop>
            <stop stop-color="#0272BE" offset="100%"></stop>
        </linearGradient>
    </defs>
    <g id="Page-1" stroke="none" stroke-width="1" fill="none" fill-rule="evenodd">
        <g id="homepage" transform="translate(-655.000000, -3561.000000)" fill="url(#linearGradient-1)">
            <g id="icon-phone" transform="translate(655.000000, 3561.000000)">
                <g id="Layer_1">
                    <path d="M12,0.5 C5.659,0.5 0.5,5.659 0.5,12 C0.5,18.341 5.659,23.5 12,23.5 C15.85,23.5 19.614,21.489 20.95,18.719 C21.437,17.71 21.217,17.02 20.946,16.619 C20.514,15.978 19.628,15.638 18.5,15.607 L18.5,15.006 C18.5,14.363 17.977,13.84 17.333,13.84 C16.57,13.84 15.822,13.721 15.115,13.487 C14.707,13.346 14.204,13.479 13.971,13.721 L12.617,14.743 C11.065,13.898 10.088,12.922 9.254,11.381 L10.231,10.08 C10.543,9.769 10.654,9.316 10.52,8.889 C10.285,8.177 10.165,7.429 10.165,6.666 C10.167,6.023 9.643,5.5 9,5.5 L6.667,5.5 C6.023,5.5 5.5,6.023 5.5,6.667 C5.5,13.192 10.809,18.5 17.333,18.5 C17.976,18.5 18.5,17.977 18.5,17.333 L18.5,16.596 C19.27,16.619 19.877,16.822 20.117,17.178 C20.298,17.445 20.275,17.817 20.05,18.283 C18.871,20.727 15.485,22.5 12,22.5 C6.21,22.5 1.5,17.79 1.5,12 C1.5,6.21 6.21,1.5 12,1.5 C17.79,1.5 22.5,6.21 22.5,12 C22.5,12.276 22.724,12.5 23,12.5 C23.276,12.5 23.5,12.276 23.5,12 C23.5,5.659 18.341,0.5 12,0.5 L12,0.5 Z" id="Shape"></path>
                </g>
            </g>
        </g>
    </g>
</svg>