<?xml version="1.0" encoding="UTF-8" standalone="no"?>
<svg width="22px" height="30px" viewBox="0 0 22 30" version="1.1" xmlns="http://www.w3.org/2000/svg" xmlns:xlink="http://www.w3.org/1999/xlink">
    <!-- Generator: sketchtool 3.7 (28169) - http://www.bohemiancoding.com/sketch -->
    <title>B575E123-1B5F-4E1D-B9B9-C9DE2D5F3B8F</title>
    <desc>Created with sketchtool.</desc>
    <defs>
        <linearGradient x1="50%" y1="0%" x2="50%" y2="100%" id="linearGradient-1">
            <stop stop-color="#02A6D9" offset="0%"></stop>
            <stop stop-color="#0272BE" offset="100%"></stop>
        </linearGradient>
    </defs>
    <g id="Page-1" stroke="none" stroke-width="1" fill="none" fill-rule="evenodd">
        <g id="homepage" transform="translate(-655.000000, -3502.000000)" fill="url(#linearGradient-1)">
            <g id="icon-home" transform="translate(655.000000, 3502.000000)">
                <g id="Layer_1">
                    <path d="M11,0 C5.2,0 0.5,4.7 0.5,10.5 C0.5,20.7 10.3,29.5 10.7,29.9 C10.8,30 10.9,30 11,30 C11.1,30 11.2,30 11.3,29.9 C11.7,29.5 21.5,20.7 21.5,10.5 C21.5,4.7 16.8,0 11,0 L11,0 Z M16.5,10.7 C16.4,10.9 16.2,11 16,11 L15.5,11 L15.5,15.5 C15.5,15.8 15.3,16 15,16 L12,16 C11.7,16 11.5,15.8 11.5,15.5 L11.5,12 L10.5,12 L10.5,15.5 C10.5,15.8 10.3,16 10,16 L7,16 C6.7,16 6.5,15.8 6.5,15.5 L6.5,11 L6,11 C5.8,11 5.6,10.9 5.5,10.7 C5.4,10.5 5.5,10.3 5.6,10.2 L10.6,5.2 C10.8,5 11.1,5 11.3,5.2 L16.3,10.2 C16.5,10.3 16.5,10.5 16.5,10.7 L16.5,10.7 Z" id="Shape"></path>
                </g>
            </g>
        </g>
    </g>
</svg>