<?xml version="1.0" encoding="UTF-8" standalone="no"?>
<svg width="90px" height="90px" viewBox="0 0 90 90" version="1.1" xmlns="http://www.w3.org/2000/svg" xmlns:xlink="http://www.w3.org/1999/xlink">
    <!-- Generator: sketchtool 3.7 (28169) - http://www.bohemiancoding.com/sketch -->
    <title>E48342DC-DA01-4E0E-B2CD-F5CD804EC791</title>
    <desc>Created with sketchtool.</desc>
    <defs></defs>
    <g id="Page-1" stroke="none" stroke-width="1" fill="none" fill-rule="evenodd">
        <g id="homepage" transform="translate(-203.000000, -2531.000000)">
            <g id="icon-infrastructureserveur" transform="translate(203.000000, 2531.000000)">
                <ellipse id="Oval-6" fill="#EFEFEF" cx="45" cy="45" rx="45" ry="45"></ellipse>
                <g id="cloud-server.1" transform="translate(25.000000, 36.000000)">
                    <g id="Layer_1">
                        <g id="Group">
                            <g>
                                <path d="M35,18.3333333 L5,18.3333333 C2.24333333,18.3333333 0,16.09 0,13.3333333 C0,10.5766667 2.24333333,8.33333333 5,8.33333333 L35,8.33333333 C37.7566667,8.33333333 40,10.5766667 40,13.3333333 C40,16.09 37.7566667,18.3333333 35,18.3333333 L35,18.3333333 Z M5,10 C3.16166667,10 1.66666667,11.495 1.66666667,13.3333333 C1.66666667,15.1716667 3.16166667,16.6666667 5,16.6666667 L35,16.6666667 C36.8383333,16.6666667 38.3333333,15.1716667 38.3333333,13.3333333 C38.3333333,11.495 36.8383333,10 35,10 L5,10 L5,10 Z" id="Shape" fill="#0272BE"></path>
                                <path d="M5.88333333,15 C5.42333333,15 5.04166667,14.6266667 5.04166667,14.1666667 C5.04166667,13.7066667 5.40666667,13.3333333 5.86666667,13.3333333 L5.88333333,13.3333333 C6.34333333,13.3333333 6.71666667,13.7066667 6.71666667,14.1666667 C6.71666667,14.6266667 6.34333333,15 5.88333333,15 L5.88333333,15 Z" id="Shape" fill="#02A6D9"></path>
                                <ellipse id="Oval" fill="#02A6D9" cx="35" cy="13.3333333" rx="1.66666667" ry="1.66666667"></ellipse>
                                <path d="M9.21666667,15 C8.75666667,15 8.375,14.6266667 8.375,14.1666667 C8.375,13.7066667 8.74,13.3333333 9.2,13.3333333 L9.21666667,13.3333333 C9.67666667,13.3333333 10.05,13.7066667 10.05,14.1666667 C10.05,14.6266667 9.67666667,15 9.21666667,15 L9.21666667,15 Z" id="Shape" fill="#02A6D9"></path>
                                <path d="M35,10 L5,10 C2.24333333,10 0,7.75666667 0,5 C0,2.24333333 2.24333333,0 5,0 L35,0 C37.7566667,0 40,2.24333333 40,5 C40,7.75666667 37.7566667,10 35,10 L35,10 Z M5,1.66666667 C3.16166667,1.66666667 1.66666667,3.16166667 1.66666667,5 C1.66666667,6.83833333 3.16166667,8.33333333 5,8.33333333 L35,8.33333333 C36.8383333,8.33333333 38.3333333,6.83833333 38.3333333,5 C38.3333333,3.16166667 36.8383333,1.66666667 35,1.66666667 L5,1.66666667 L5,1.66666667 Z" id="Shape" fill="#0272BE"></path>
                                <path d="M5.88333333,6.66666667 C5.42333333,6.66666667 5.04166667,6.29333333 5.04166667,5.83333333 C5.04166667,5.37333333 5.40666667,5 5.86666667,5 L5.88333333,5 C6.34333333,5 6.71666667,5.37333333 6.71666667,5.83333333 C6.71666667,6.29333333 6.34333333,6.66666667 5.88333333,6.66666667 L5.88333333,6.66666667 Z" id="Shape" fill="#02A6D9"></path>
                                <ellipse id="Oval" fill="#02A6D9" cx="35" cy="5" rx="1.66666667" ry="1.66666667"></ellipse>
                                <path d="M9.21666667,6.66666667 C8.75666667,6.66666667 8.375,6.29333333 8.375,5.83333333 C8.375,5.37333333 8.74,5 9.2,5 L9.21666667,5 C9.67666667,5 10.05,5.37333333 10.05,5.83333333 C10.05,6.29333333 9.67666667,6.66666667 9.21666667,6.66666667 L9.21666667,6.66666667 Z" id="Shape" fill="#02A6D9"></path>
                            </g>
                        </g>
                    </g>
                </g>
            </g>
        </g>
    </g>
</svg>