<?xml version="1.0" encoding="UTF-8" standalone="no"?>
<svg width="90px" height="90px" viewBox="0 0 90 90" version="1.1" xmlns="http://www.w3.org/2000/svg" xmlns:xlink="http://www.w3.org/1999/xlink">
    <!-- Generator: sketchtool 3.7 (28169) - http://www.bohemiancoding.com/sketch -->
    <title>42D601A8-171D-4CE6-8200-03F7BB209F8E</title>
    <desc>Created with sketchtool.</desc>
    <defs></defs>
    <g id="Page-1" stroke="none" stroke-width="1" fill="none" fill-rule="evenodd">
        <g id="homepage" transform="translate(-202.000000, -2929.000000)">
            <g id="icon-telecom" transform="translate(202.000000, 2929.000000)">
                <ellipse id="Oval-6" fill="#EFEFEF" cx="45" cy="45" rx="45" ry="45"></ellipse>
                <g id="electric-plug.3" transform="translate(22.000000, 26.000000)">
                    <g id="Layer_1">
                        <g id="Group">
                            <path d="M30.6129032,14.1935484 C30.483871,14.1935484 30.3548387,14.1935484 30.2258065,14.0645161 C29.9677419,13.8064516 29.8387097,13.4193548 30.0967742,13.1612903 L32.4193548,10.0645161 C32.6774194,9.67741935 32.5483871,9.16129032 32.2903226,8.90322581 L30.483871,6.96774194 C30.2258065,6.70967742 29.7096774,6.58064516 29.3225806,6.83870968 L25.8387097,9.03225806 C25.5806452,9.16129032 25.1935484,9.16129032 24.9354839,8.77419355 C24.8064516,8.51612903 24.8064516,8.12903226 25.1935484,7.87096774 L28.5483871,5.67741935 C29.4516129,5.03225806 30.6129032,5.16129032 31.3870968,5.93548387 L33.1935484,7.87096774 C33.9677419,8.64516129 34.0967742,9.80645161 33.4516129,10.7096774 L31.1290323,13.8064516 C31,14.0645161 30.8709677,14.1935484 30.6129032,14.1935484 L30.6129032,14.1935484 Z" id="Shape" fill="#0272BE"></path>
                            <path d="M31.9032258,7.74193548 C31.7741935,7.74193548 31.516129,7.74193548 31.3870968,7.61290323 C31.1290323,7.35483871 31.1290323,6.96774194 31.3870968,6.70967742 L37.8387097,0.258064516 C38.0967742,-5.86475313e-14 38.483871,-5.86475313e-14 38.7419355,0.258064516 C39,0.516129032 39,0.903225806 38.7419355,1.16129032 L32.2903226,7.61290323 C32.2903226,7.74193548 32.0322581,7.74193548 31.9032258,7.74193548 L31.9032258,7.74193548 Z" id="Shape" fill="#02A6D9"></path>
                            <path d="M24.8064516,27.7419355 C24.6774194,27.7419355 24.4193548,27.6129032 24.2903226,27.6129032 C24.0322581,27.3548387 24.0322581,26.9677419 24.2903226,26.7096774 L28.4193548,22.5806452 C29.8387097,21.2903226 30.483871,19.483871 30.483871,17.5483871 C30.483871,15.6129032 29.7096774,13.8064516 28.4193548,12.516129 L25.7096774,9.80645161 C24.4193548,8.51612903 22.6129032,7.74193548 20.6774194,7.74193548 L20.6774194,7.74193548 C18.8709677,7.74193548 17.0645161,8.51612903 15.7741935,9.93548387 L11.6451613,14.0645161 C11.3870968,14.3225806 11,14.3225806 10.7419355,14.0645161 C10.483871,13.8064516 10.483871,13.4193548 10.7419355,13.1612903 L14.8709677,9.03225806 C16.4193548,7.35483871 18.6129032,6.4516129 20.8064516,6.4516129 C23,6.4516129 25.1935484,7.35483871 26.7419355,8.90322581 L29.4516129,11.6129032 C31,13.1612903 31.9032258,15.3548387 31.9032258,17.5483871 C31.9032258,19.7419355 31,21.9354839 29.4516129,23.483871 L25.3225806,27.6129032 C25.1935484,27.7419355 24.9354839,27.7419355 24.8064516,27.7419355 L24.8064516,27.7419355 Z" id="Shape" fill="#02A6D9"></path>
                            <path d="M22.8709677,19.3548387 C21.0645161,19.3548387 19.6451613,17.9354839 19.6451613,16.1290323 C19.6451613,14.3225806 21.0645161,12.9032258 22.8709677,12.9032258 C24.6774194,12.9032258 26.0967742,14.3225806 26.0967742,16.1290323 C26.0967742,17.9354839 24.6774194,19.3548387 22.8709677,19.3548387 L22.8709677,19.3548387 Z M22.8709677,14.1935484 C21.8387097,14.1935484 20.9354839,15.0967742 20.9354839,16.1290323 C20.9354839,17.1612903 21.8387097,18.0645161 22.8709677,18.0645161 C23.9032258,18.0645161 24.8064516,17.1612903 24.8064516,16.1290323 C24.8064516,15.0967742 23.9032258,14.1935484 22.8709677,14.1935484 L22.8709677,14.1935484 Z" id="Shape" fill="#02A6D9"></path>
                            <path d="M11.516129,38.7096774 C11,38.7096774 10.3548387,38.4516129 9.96774194,38.0645161 C9.06451613,37.1612903 9.06451613,35.7419355 9.96774194,34.8387097 L16.0322581,28.7741935 C16.2903226,28.516129 16.6774194,28.516129 16.9354839,28.7741935 C17.1935484,29.0322581 17.1935484,29.4193548 16.9354839,29.6774194 L10.8709677,35.7419355 C10.483871,36.1290323 10.483871,36.7741935 10.8709677,37.1612903 C11.2580645,37.5483871 11.9032258,37.5483871 12.2903226,37.1612903 L18.3548387,31.0967742 C18.6129032,30.8387097 19,30.8387097 19.2580645,31.0967742 C19.516129,31.3548387 19.516129,31.7419355 19.2580645,32 L13.1935484,38.0645161 C12.6774194,38.4516129 12.1612903,38.7096774 11.516129,38.7096774 L11.516129,38.7096774 Z" id="Shape" fill="#0272BE"></path>
                            <path d="M22.0967742,34.8387097 C21.5806452,34.8387097 20.9354839,34.5806452 20.5483871,34.1935484 L18.3548387,32 L18.3548387,32 L4.80645161,18.3225806 C3.90322581,17.4193548 3.90322581,16 4.80645161,15.0967742 L7.38709677,12.516129 C8.29032258,11.6129032 9.70967742,11.6129032 10.6129032,12.516129 L26.2258065,28.3870968 C27.1290323,29.2903226 27.1290323,30.7096774 26.2258065,31.6129032 L23.6451613,34.1935484 C23.2580645,34.5806452 22.6129032,34.8387097 22.0967742,34.8387097 L22.0967742,34.8387097 Z M19.2580645,31.0967742 L21.4516129,33.2903226 C21.8387097,33.6774194 22.483871,33.6774194 22.8709677,33.2903226 L25.4516129,30.7096774 C25.8387097,30.3225806 25.8387097,29.6774194 25.4516129,29.2903226 L9.70967742,13.5483871 C9.32258065,13.1612903 8.67741935,13.1612903 8.29032258,13.5483871 L5.70967742,16.1290323 C5.32258065,16.516129 5.32258065,17.1612903 5.70967742,17.5483871 L19.2580645,31.0967742 L19.2580645,31.0967742 Z" id="Shape" fill="#02A6D9"></path>
                            <path d="M2.48387097,29.6774194 C1.96774194,29.6774194 1.32258065,29.4193548 0.935483871,29.0322581 C0.0322580645,28.1290323 0.0322580645,26.7096774 0.935483871,25.8064516 L7,19.7419355 C7.25806452,19.483871 7.64516129,19.483871 7.90322581,19.7419355 C8.16129032,20 8.16129032,20.3870968 7.90322581,20.6451613 L1.83870968,26.7096774 C1.4516129,27.0967742 1.4516129,27.7419355 1.83870968,28.1290323 C2.22580645,28.516129 2.87096774,28.516129 3.25806452,28.1290323 L9.32258065,22.0645161 C9.58064516,21.8064516 9.96774194,21.8064516 10.2258065,22.0645161 C10.483871,22.3225806 10.483871,22.7096774 10.2258065,22.9677419 L4.16129032,29.0322581 C3.64516129,29.4193548 3.12903226,29.6774194 2.48387097,29.6774194 L2.48387097,29.6774194 Z" id="Shape" fill="#0272BE"></path>
                        </g>
                    </g>
                </g>
            </g>
        </g>
    </g>
</svg>