<?xml version="1.0" encoding="UTF-8" standalone="no"?>
<svg width="115px" height="20px" viewBox="0 0 115 20" version="1.1" xmlns="http://www.w3.org/2000/svg" xmlns:xlink="http://www.w3.org/1999/xlink">
    <!-- Generator: sketchtool 3.7 (28169) - http://www.bohemiancoding.com/sketch -->
    <title>5BBE7E1B-AC87-41CA-B79B-778692755BE0</title>
    <desc>Created with sketchtool.</desc>
    <defs>
        <linearGradient x1="50%" y1="0%" x2="50%" y2="100%" id="linearGradient-1">
            <stop stop-color="#02A6D9" offset="0%"></stop>
            <stop stop-color="#0272BE" offset="100%"></stop>
        </linearGradient>
    </defs>
    <g id="Page-1" stroke="none" stroke-width="1" fill="none" fill-rule="evenodd">
        <g id="homepage" transform="translate(-50.000000, -33.000000)">
            <g id="logo" transform="translate(50.000000, 33.000000)">
                <g id="ValueIT-Logo-Horizontal">
                    <g id="Page-1">
                        <g id="ValueIT-Logo-Horizontal">
                            <g id="Group-2">
                                <path d="M19.2431865,5.68237987 C19.2431865,9.27116492 17.4397958,11.0647362 13.8305371,11.0647362 C10.2233428,11.0647362 8.41747486,9.2707543 8.41747486,5.68237987 C8.41747486,3.37061101 6.53357563,1.4953271 4.20873744,1.4953271 C1.88389925,1.4953271 0,3.37061101 0,5.68237987 C0,7.99455933 1.88389925,9.86984323 4.20873744,9.86984323 C7.81799607,9.86984323 9.62179968,11.6638251 9.62179968,15.2534314 C9.62179968,17.5656109 11.5056989,19.4392523 13.83095,19.4392523 C16.1553753,19.4392523 18.0421646,17.5656109 18.0421646,15.2534314 C18.0421646,11.6638251 19.8455553,9.86984323 23.4523368,9.86984323 C25.7796521,9.86984323 27.6635514,7.99455933 27.6635514,5.68237987 C27.6635514,3.37061101 25.7792393,1.4953271 23.4519239,1.4953271 C21.1270858,1.4953271 19.2431865,3.37061101 19.2431865,5.68237987 L19.2431865,5.68237987 Z" id="Shape-Copy-2" fill="url(#linearGradient-1)"></path>
                                <path d="M46.454206,0.859813084 C45.3813088,0.859813084 45.0411219,1.01682243 44.8317761,1.64485981 L41.0373836,12.8186916 C40.6448602,13.9439252 40.3570097,15.5663551 40.3570097,15.5663551 L40.2000004,15.5663551 C40.2000004,15.4878505 39.9121499,14.0224299 39.5196265,12.7925234 L35.6990658,1.64485981 C35.48972,1.01682243 35.1495331,0.859813084 34.0766359,0.859813084 L32.7420564,0.859813084 C32.1401873,0.859813084 31.9570097,1.14766355 32.1663555,1.72336449 L38.4467293,18.7327103 C38.6299069,19.282243 38.9177574,19.4392523 39.5457948,19.4392523 L40.9327107,19.4392523 C41.560748,19.4392523 41.7962621,19.3084112 42.0317761,18.7065421 L48.2859817,1.72336449 C48.5214957,1.14766355 48.3383181,0.859813084 47.7102807,0.859813084 L46.454206,0.859813084 L46.454206,0.859813084 Z M47.0822432,8.21308411 C46.7943927,8.7364486 46.9514021,9.12897196 47.527103,9.39065421 L48.573832,9.83551402 C49.1757011,10.0448598 49.3065422,9.99252336 49.6990656,9.44299065 C50.2485983,8.60560748 51.1644862,8.18691589 52.4467292,8.18691589 C54.3308413,8.18691589 55.0635516,9.07663551 55.0635516,10.7775701 L55.0635516,11.5102804 C53.5719628,11.4317757 52.7345796,11.3794393 52.5514021,11.3794393 C48.2859815,11.3794393 46.6112151,12.4785047 46.6112151,15.5925234 C46.6112151,17.0317757 47.0299067,18.1046729 47.8672899,18.7850467 C48.7046731,19.4915888 50.2224301,19.8317757 52.4467292,19.8317757 C54.5401871,19.8317757 56.1102806,19.5962617 57.1570095,19.1514019 C57.8897198,18.8373832 58.0990656,18.5757009 58.0990656,17.6598131 L58.0990656,10.882243 C58.0990656,7.29719626 56.2411217,5.49158879 52.4990656,5.49158879 C49.8299067,5.49158879 48.0242993,6.40747664 47.0822432,8.21308411 L47.0822432,8.21308411 L47.0822432,8.21308411 Z M55.0635516,16.7439252 C55.0635516,16.9271028 54.9588787,17.0317757 54.7757011,17.1102804 C54.1476637,17.2411215 53.2841123,17.3196262 52.1588787,17.3196262 C50.2485983,17.3196262 49.6990656,16.7439252 49.6990656,15.5663551 C49.6990656,14.4149533 50.327103,13.8654206 52.2112151,13.8654206 C52.2897198,13.8654206 53.2317759,13.917757 55.0635516,13.9962617 L55.0635516,16.7439252 L55.0635516,16.7439252 Z M62.9663553,0.885981308 C62.9663553,0.28411215 62.7570095,0.0747663551 62.1551404,0.0747663551 L60.7420563,0.0747663551 C60.1140189,0.0747663551 59.9308413,0.28411215 59.9308413,0.885981308 L59.9308413,18.6280374 C59.9308413,19.2299065 60.1140189,19.4392523 60.7420563,19.4392523 L62.1551404,19.4392523 C62.7570095,19.4392523 62.9663553,19.2299065 62.9663553,18.6280374 L62.9663553,0.885981308 L62.9663553,0.885981308 Z M74.2971963,5.88411215 C73.6953271,5.88411215 73.4859813,6.06728972 73.4859813,6.66915888 L73.4859813,16.2990654 C73.4859813,16.5345794 73.3813084,16.6654206 73.1981308,16.7439252 C72.4915888,16.953271 71.7065421,17.0579439 70.7906542,17.0579439 C68.8803738,17.0579439 67.9383178,16.1943925 67.9383178,14.4672897 L67.9383178,6.66915888 C67.9383178,6.06728972 67.7551402,5.88411215 67.153271,5.88411215 L65.7140187,5.88411215 C65.1121495,5.88411215 64.9028037,6.06728972 64.9028037,6.66915888 L64.9028037,14.5719626 C64.9028037,17.9476636 66.7084112,19.8317757 70.3719626,19.8317757 C72.2560748,19.8317757 73.9570093,19.517757 75.5009346,18.9158879 C76.3383178,18.5757009 76.5214953,18.2878505 76.5214953,17.4504673 L76.5214953,6.66915888 C76.5214953,6.06728972 76.3121495,5.88411215 75.7102804,5.88411215 L74.2971963,5.88411215 L74.2971963,5.88411215 Z M77.9869159,14.2317757 C77.9869159,17.6598131 79.9233645,19.8317757 84.0056075,19.8317757 C86.753271,19.8317757 88.6373832,18.9943925 89.6579439,17.3196262 C90.0504673,16.717757 89.9457944,16.2990654 89.3439252,16.011215 L88.4280374,15.5140187 C87.8,15.1738318 87.5121495,15.2261682 87.0934579,15.8280374 C86.4915888,16.7439252 85.471028,17.2149533 84.0056075,17.2149533 C82.0953271,17.2149533 81.0224299,16.2990654 81.0224299,14.5981308 L81.0224299,13.6299065 L88.9252336,13.6299065 C89.7102804,13.6299065 90.1028037,13.2635514 90.1028037,12.5046729 L90.1028037,10.9084112 C90.1028037,7.74205607 88.035514,5.49158879 84.0579439,5.49158879 C80.1065421,5.49158879 77.9869159,7.48037383 77.9869159,11.1439252 L77.9869159,14.2317757 L77.9869159,14.2317757 Z M87.0672897,11.3009346 L81.0224299,11.3009346 L81.0224299,10.7252336 C81.0224299,9.02429907 82.0953271,8.05607477 84.0579439,8.05607477 C86.046729,8.05607477 87.0672897,9.02429907 87.0672897,10.7252336 L87.0672897,11.3009346 L87.0672897,11.3009346 Z" id="Value-IT-Copy-2" fill="#4A4A4A"></path>
                                <path d="M101.747663,0.859813084 C101.093458,0.859813084 100.857944,1.0953271 100.857944,1.74953271 L100.857944,3.0317757 C100.857944,3.68598131 101.093458,3.92149533 101.747663,3.92149533 L106.248598,3.92149533 L106.248598,18.5495327 C106.248598,19.2037383 106.484112,19.4392523 107.138318,19.4392523 L108.656075,19.4392523 C109.31028,19.4392523 109.545794,19.2037383 109.545794,18.5495327 L109.545794,3.92149533 L114.046729,3.92149533 C114.700934,3.92149533 114.936448,3.68598131 114.936448,3.0317757 L114.936448,1.74953271 C114.936448,1.0953271 114.700934,0.859813084 114.046729,0.859813084 L101.747663,0.859813084 L101.747663,0.859813084 Z" id="Path" fill="#4A4A4A"></path>
                                <path d="M96.4355138,18.5495327 C96.4355138,19.2037383 96.6971961,19.4392523 97.3514017,19.4392523 L98.8429905,19.4392523 C99.4971961,19.4392523 99.7327101,19.2037383 99.7327101,18.5495327 L99.7327101,1.74953271 C99.7327101,1.0953271 99.4971961,0.859813084 98.8429905,0.859813084 L97.3514017,0.859813084 C96.6971961,0.859813084 96.4355138,1.0953271 96.4355138,1.74953271 L96.4355138,18.5495327 L96.4355138,18.5495327 Z" id="Path" fill="#4A4A4A"></path>
                            </g>
                        </g>
                    </g>
                </g>
            </g>
        </g>
    </g>
</svg>